<mxfile host="Electron" modified="2023-08-26T04:47:37.645Z" agent="Mozilla/5.0 (Windows NT 10.0; Win64; x64) AppleWebKit/537.36 (KHTML, like Gecko) draw.io/21.6.8 Chrome/114.0.5735.289 Electron/25.5.0 Safari/537.36" etag="AjE3slm1lZFRA2xYI81D" version="21.6.8" type="device">
  <diagram id="C5RBs43oDa-KdzZeNtuy" name="Page-1">
    <mxGraphModel dx="2261" dy="2005" grid="1" gridSize="10" guides="1" tooltips="1" connect="1" arrows="1" fold="1" page="1" pageScale="1" pageWidth="827" pageHeight="1169" math="0" shadow="0">
      <root>
        <mxCell id="WIyWlLk6GJQsqaUBKTNV-0" />
        <mxCell id="WIyWlLk6GJQsqaUBKTNV-1" parent="WIyWlLk6GJQsqaUBKTNV-0" />
        <mxCell id="YjQ3s37gOzfDQ9f1rgy9-21" value="" style="edgeStyle=orthogonalEdgeStyle;rounded=0;orthogonalLoop=1;jettySize=auto;html=1;" edge="1" parent="WIyWlLk6GJQsqaUBKTNV-1" source="YjQ3s37gOzfDQ9f1rgy9-2" target="YjQ3s37gOzfDQ9f1rgy9-3">
          <mxGeometry relative="1" as="geometry" />
        </mxCell>
        <mxCell id="YjQ3s37gOzfDQ9f1rgy9-2" value="RAW Image" style="shape=parallelogram;perimeter=parallelogramPerimeter;whiteSpace=wrap;html=1;fixedSize=1;" vertex="1" parent="WIyWlLk6GJQsqaUBKTNV-1">
          <mxGeometry y="60" width="120" height="60" as="geometry" />
        </mxCell>
        <mxCell id="YjQ3s37gOzfDQ9f1rgy9-22" value="" style="edgeStyle=orthogonalEdgeStyle;rounded=0;orthogonalLoop=1;jettySize=auto;html=1;" edge="1" parent="WIyWlLk6GJQsqaUBKTNV-1" source="YjQ3s37gOzfDQ9f1rgy9-3" target="YjQ3s37gOzfDQ9f1rgy9-16">
          <mxGeometry relative="1" as="geometry" />
        </mxCell>
        <mxCell id="YjQ3s37gOzfDQ9f1rgy9-3" value="Process RAW" style="rounded=1;whiteSpace=wrap;html=1;" vertex="1" parent="WIyWlLk6GJQsqaUBKTNV-1">
          <mxGeometry y="160" width="120" height="60" as="geometry" />
        </mxCell>
        <mxCell id="YjQ3s37gOzfDQ9f1rgy9-26" value="" style="edgeStyle=orthogonalEdgeStyle;rounded=0;orthogonalLoop=1;jettySize=auto;html=1;" edge="1" parent="WIyWlLk6GJQsqaUBKTNV-1" source="YjQ3s37gOzfDQ9f1rgy9-4" target="YjQ3s37gOzfDQ9f1rgy9-6">
          <mxGeometry relative="1" as="geometry" />
        </mxCell>
        <mxCell id="YjQ3s37gOzfDQ9f1rgy9-4" value="Lens Calibration Parameters" style="shape=parallelogram;perimeter=parallelogramPerimeter;whiteSpace=wrap;html=1;fixedSize=1;" vertex="1" parent="WIyWlLk6GJQsqaUBKTNV-1">
          <mxGeometry x="330" y="60" width="120" height="60" as="geometry" />
        </mxCell>
        <mxCell id="YjQ3s37gOzfDQ9f1rgy9-18" style="edgeStyle=orthogonalEdgeStyle;rounded=0;orthogonalLoop=1;jettySize=auto;html=1;exitX=1;exitY=0.5;exitDx=0;exitDy=0;entryX=0;entryY=0.5;entryDx=0;entryDy=0;" edge="1" parent="WIyWlLk6GJQsqaUBKTNV-1" source="YjQ3s37gOzfDQ9f1rgy9-5" target="YjQ3s37gOzfDQ9f1rgy9-3">
          <mxGeometry relative="1" as="geometry" />
        </mxCell>
        <mxCell id="YjQ3s37gOzfDQ9f1rgy9-5" value="Start" style="ellipse;whiteSpace=wrap;html=1;" vertex="1" parent="WIyWlLk6GJQsqaUBKTNV-1">
          <mxGeometry x="-160" y="150" width="120" height="80" as="geometry" />
        </mxCell>
        <mxCell id="YjQ3s37gOzfDQ9f1rgy9-25" value="" style="edgeStyle=orthogonalEdgeStyle;rounded=0;orthogonalLoop=1;jettySize=auto;html=1;" edge="1" parent="WIyWlLk6GJQsqaUBKTNV-1" source="YjQ3s37gOzfDQ9f1rgy9-6" target="YjQ3s37gOzfDQ9f1rgy9-9">
          <mxGeometry relative="1" as="geometry" />
        </mxCell>
        <mxCell id="YjQ3s37gOzfDQ9f1rgy9-6" value="Undistort Image" style="rounded=1;whiteSpace=wrap;html=1;" vertex="1" parent="WIyWlLk6GJQsqaUBKTNV-1">
          <mxGeometry x="330" y="160" width="120" height="60" as="geometry" />
        </mxCell>
        <mxCell id="YjQ3s37gOzfDQ9f1rgy9-27" value="" style="edgeStyle=orthogonalEdgeStyle;rounded=0;orthogonalLoop=1;jettySize=auto;html=1;" edge="1" parent="WIyWlLk6GJQsqaUBKTNV-1" source="YjQ3s37gOzfDQ9f1rgy9-8" target="YjQ3s37gOzfDQ9f1rgy9-9">
          <mxGeometry relative="1" as="geometry" />
        </mxCell>
        <mxCell id="YjQ3s37gOzfDQ9f1rgy9-8" value="Laser Location" style="shape=parallelogram;perimeter=parallelogramPerimeter;whiteSpace=wrap;html=1;fixedSize=1;" vertex="1" parent="WIyWlLk6GJQsqaUBKTNV-1">
          <mxGeometry x="490" y="60" width="120" height="60" as="geometry" />
        </mxCell>
        <mxCell id="YjQ3s37gOzfDQ9f1rgy9-29" value="" style="edgeStyle=orthogonalEdgeStyle;rounded=0;orthogonalLoop=1;jettySize=auto;html=1;" edge="1" parent="WIyWlLk6GJQsqaUBKTNV-1" source="YjQ3s37gOzfDQ9f1rgy9-9" target="YjQ3s37gOzfDQ9f1rgy9-15">
          <mxGeometry relative="1" as="geometry" />
        </mxCell>
        <mxCell id="YjQ3s37gOzfDQ9f1rgy9-9" value="Calculate Distance using Laser Parallax" style="rounded=1;whiteSpace=wrap;html=1;" vertex="1" parent="WIyWlLk6GJQsqaUBKTNV-1">
          <mxGeometry x="490" y="160" width="120" height="60" as="geometry" />
        </mxCell>
        <mxCell id="YjQ3s37gOzfDQ9f1rgy9-31" value="" style="edgeStyle=orthogonalEdgeStyle;rounded=0;orthogonalLoop=1;jettySize=auto;html=1;" edge="1" parent="WIyWlLk6GJQsqaUBKTNV-1" source="YjQ3s37gOzfDQ9f1rgy9-10" target="YjQ3s37gOzfDQ9f1rgy9-15">
          <mxGeometry relative="1" as="geometry" />
        </mxCell>
        <mxCell id="YjQ3s37gOzfDQ9f1rgy9-10" value="Snout and Tail Fork Location" style="shape=parallelogram;perimeter=parallelogramPerimeter;whiteSpace=wrap;html=1;fixedSize=1;" vertex="1" parent="WIyWlLk6GJQsqaUBKTNV-1">
          <mxGeometry x="640" y="60" width="140" height="60" as="geometry" />
        </mxCell>
        <mxCell id="YjQ3s37gOzfDQ9f1rgy9-11" value="Fish Length" style="shape=document;whiteSpace=wrap;html=1;boundedLbl=1;" vertex="1" parent="WIyWlLk6GJQsqaUBKTNV-1">
          <mxGeometry x="650" y="260" width="120" height="80" as="geometry" />
        </mxCell>
        <mxCell id="YjQ3s37gOzfDQ9f1rgy9-12" value="End" style="ellipse;whiteSpace=wrap;html=1;" vertex="1" parent="WIyWlLk6GJQsqaUBKTNV-1">
          <mxGeometry x="920" y="150" width="120" height="80" as="geometry" />
        </mxCell>
        <mxCell id="YjQ3s37gOzfDQ9f1rgy9-28" value="" style="edgeStyle=orthogonalEdgeStyle;rounded=0;orthogonalLoop=1;jettySize=auto;html=1;" edge="1" parent="WIyWlLk6GJQsqaUBKTNV-1" source="YjQ3s37gOzfDQ9f1rgy9-13" target="YjQ3s37gOzfDQ9f1rgy9-8">
          <mxGeometry relative="1" as="geometry" />
        </mxCell>
        <mxCell id="YjQ3s37gOzfDQ9f1rgy9-13" value="Laser Calibration Parameters" style="shape=parallelogram;perimeter=parallelogramPerimeter;whiteSpace=wrap;html=1;fixedSize=1;" vertex="1" parent="WIyWlLk6GJQsqaUBKTNV-1">
          <mxGeometry x="485" y="-40" width="130" height="60" as="geometry" />
        </mxCell>
        <mxCell id="YjQ3s37gOzfDQ9f1rgy9-24" value="" style="edgeStyle=orthogonalEdgeStyle;rounded=0;orthogonalLoop=1;jettySize=auto;html=1;" edge="1" parent="WIyWlLk6GJQsqaUBKTNV-1" target="YjQ3s37gOzfDQ9f1rgy9-6">
          <mxGeometry relative="1" as="geometry">
            <mxPoint x="270" y="190" as="sourcePoint" />
          </mxGeometry>
        </mxCell>
        <mxCell id="YjQ3s37gOzfDQ9f1rgy9-32" value="" style="edgeStyle=orthogonalEdgeStyle;rounded=0;orthogonalLoop=1;jettySize=auto;html=1;" edge="1" parent="WIyWlLk6GJQsqaUBKTNV-1" source="YjQ3s37gOzfDQ9f1rgy9-15" target="YjQ3s37gOzfDQ9f1rgy9-11">
          <mxGeometry relative="1" as="geometry" />
        </mxCell>
        <mxCell id="YjQ3s37gOzfDQ9f1rgy9-38" value="" style="edgeStyle=orthogonalEdgeStyle;rounded=0;orthogonalLoop=1;jettySize=auto;html=1;" edge="1" parent="WIyWlLk6GJQsqaUBKTNV-1" source="YjQ3s37gOzfDQ9f1rgy9-15" target="YjQ3s37gOzfDQ9f1rgy9-35">
          <mxGeometry relative="1" as="geometry" />
        </mxCell>
        <mxCell id="YjQ3s37gOzfDQ9f1rgy9-15" value="Calculate Fish Length" style="rounded=1;whiteSpace=wrap;html=1;" vertex="1" parent="WIyWlLk6GJQsqaUBKTNV-1">
          <mxGeometry x="650" y="160" width="120" height="60" as="geometry" />
        </mxCell>
        <mxCell id="YjQ3s37gOzfDQ9f1rgy9-40" style="edgeStyle=orthogonalEdgeStyle;rounded=0;orthogonalLoop=1;jettySize=auto;html=1;exitX=0.5;exitY=1;exitDx=0;exitDy=0;entryX=0.5;entryY=1;entryDx=0;entryDy=0;entryPerimeter=0;" edge="1" parent="WIyWlLk6GJQsqaUBKTNV-1" source="YjQ3s37gOzfDQ9f1rgy9-16" target="YjQ3s37gOzfDQ9f1rgy9-35">
          <mxGeometry relative="1" as="geometry">
            <mxPoint x="225" y="440" as="targetPoint" />
            <Array as="points">
              <mxPoint x="225" y="380" />
              <mxPoint x="845" y="380" />
            </Array>
          </mxGeometry>
        </mxCell>
        <mxCell id="YjQ3s37gOzfDQ9f1rgy9-16" value="Is the fish and laser visible?" style="rhombus;whiteSpace=wrap;html=1;" vertex="1" parent="WIyWlLk6GJQsqaUBKTNV-1">
          <mxGeometry x="160" y="130" width="130" height="120" as="geometry" />
        </mxCell>
        <mxCell id="YjQ3s37gOzfDQ9f1rgy9-36" value="" style="edgeStyle=orthogonalEdgeStyle;rounded=0;orthogonalLoop=1;jettySize=auto;html=1;" edge="1" parent="WIyWlLk6GJQsqaUBKTNV-1" source="YjQ3s37gOzfDQ9f1rgy9-35" target="YjQ3s37gOzfDQ9f1rgy9-12">
          <mxGeometry relative="1" as="geometry" />
        </mxCell>
        <mxCell id="YjQ3s37gOzfDQ9f1rgy9-35" value="" style="verticalLabelPosition=bottom;verticalAlign=top;html=1;shape=mxgraph.flowchart.or;" vertex="1" parent="WIyWlLk6GJQsqaUBKTNV-1">
          <mxGeometry x="810" y="155" width="70" height="70" as="geometry" />
        </mxCell>
        <mxCell id="YjQ3s37gOzfDQ9f1rgy9-42" value="Yes" style="text;html=1;align=center;verticalAlign=middle;resizable=0;points=[];autosize=1;strokeColor=none;fillColor=none;" vertex="1" parent="WIyWlLk6GJQsqaUBKTNV-1">
          <mxGeometry x="280" y="170" width="40" height="30" as="geometry" />
        </mxCell>
        <mxCell id="YjQ3s37gOzfDQ9f1rgy9-44" value="No" style="text;html=1;align=center;verticalAlign=middle;resizable=0;points=[];autosize=1;strokeColor=none;fillColor=none;" vertex="1" parent="WIyWlLk6GJQsqaUBKTNV-1">
          <mxGeometry x="220" y="260" width="40" height="30" as="geometry" />
        </mxCell>
      </root>
    </mxGraphModel>
  </diagram>
</mxfile>
